<svg width="40" height="27" viewBox="0 0 40 27" fill="currentColor" xmlns="http://www.w3.org/2000/svg">
<path d="M33.5564 19.116H19.4436C18.7679 19.116 18.1716 18.6747 17.974 18.0284L13.4789 3.3321H9.71177C8.86306 3.3321 8.17505 2.64409 8.17505 1.79539C8.17505 0.946678 8.86306 0.258667 9.71177 0.258667H14.6157C15.2914 0.258667 15.8876 0.699925 16.0852 1.34579L20.5808 16.0425H32.5351L35.8865 8.06739H23.9554C23.1067 8.06739 22.4187 7.37938 22.4187 6.53067C22.4187 5.68197 23.1067 4.99396 23.9554 4.99396H38.1986C38.7132 4.99396 39.1939 5.25169 39.4785 5.68021C39.763 6.10917 39.8148 6.65186 39.6154 7.12604L34.9728 18.1746C34.7331 18.745 34.175 19.116 33.5564 19.116Z"/>
<path d="M18.4211 26.1616C19.5887 26.1616 20.5352 25.2151 20.5352 24.0476C20.5352 22.88 19.5887 21.9335 18.4211 21.9335C17.2535 21.9335 16.307 22.88 16.307 24.0476C16.307 25.2151 17.2535 26.1616 18.4211 26.1616Z"/>
<path d="M34.1131 26.1616C35.2807 26.1616 36.2272 25.2151 36.2272 24.0476C36.2272 22.88 35.2807 21.9335 34.1131 21.9335C32.9455 21.9335 31.999 22.88 31.999 24.0476C31.999 25.2151 32.9455 26.1616 34.1131 26.1616Z"/>
<path d="M11.3869 19.1159H4.03391C3.1852 19.1159 2.49719 18.4279 2.49719 17.5792C2.49719 16.7305 3.1852 16.0425 4.03391 16.0425H11.3869C12.2356 16.0425 12.9236 16.7305 12.9236 17.5792C12.9236 18.4279 12.2356 19.1159 11.3869 19.1159Z"/>
<path d="M9.10943 12.7395H1.75645C0.907738 12.7395 0.219727 12.0514 0.219727 11.2027C0.219727 10.354 0.907738 9.66602 1.75645 9.66602H9.10943C9.95813 9.66602 10.6461 10.354 10.6461 11.2027C10.6461 12.0514 9.95813 12.7395 9.10943 12.7395Z"/>
</svg>
