<svg width="38" height="40" viewBox="0 0 38 40" fill="currentColor" xmlns="http://www.w3.org/2000/svg">
<path d="M26.5996 0.420963C25.7796 -0.399037 24.3596 0.160963 24.3596 1.30096V8.28096C24.3596 11.201 26.8396 13.621 29.8596 13.621C31.7596 13.641 34.3996 13.641 36.6596 13.641C37.7996 13.641 38.3996 12.301 37.5996 11.501C34.7196 8.60096 29.5596 3.38096 26.5996 0.420963Z"/>
<path d="M36 16.38H30.22C25.48 16.38 21.62 12.52 21.62 7.78V2C21.62 0.9 20.72 0 19.62 0H11.14C4.98 0 0 4 0 11.14V28.86C0 36 4.98 40 11.14 40H26.86C33.02 40 38 36 38 28.86V18.38C38 17.28 37.1 16.38 36 16.38ZM18 31.5H10C9.18 31.5 8.5 30.82 8.5 30C8.5 29.18 9.18 28.5 10 28.5H18C18.82 28.5 19.5 29.18 19.5 30C19.5 30.82 18.82 31.5 18 31.5ZM22 23.5H10C9.18 23.5 8.5 22.82 8.5 22C8.5 21.18 9.18 20.5 10 20.5H22C22.82 20.5 23.5 21.18 23.5 22C23.5 22.82 22.82 23.5 22 23.5Z"/>
</svg>
