<svg width="43" height="40" viewBox="0 0 43 40" fill="currentColor" xmlns="http://www.w3.org/2000/svg">
<path d="M38.3519 14.1095C34.5167 14.1095 32.9487 11.3973 34.8558 8.07065C35.9576 6.14246 35.3007 3.68454 33.3725 2.58272L29.7068 0.485017C28.0329 -0.510862 25.8717 0.0824278 24.8758 1.75635L24.6427 2.15894C22.7357 5.4856 19.5997 5.4856 17.6715 2.15894L17.4385 1.75635C16.485 0.0824278 14.3237 -0.510862 12.6498 0.485017L8.9841 2.58272C7.0559 3.68454 6.39905 6.16364 7.50087 8.09184C9.42906 11.3973 7.86108 14.1095 4.02589 14.1095C1.82225 14.1095 0 15.9105 0 18.1354V21.8646C0 24.0683 1.80106 25.8905 4.02589 25.8905C7.86108 25.8905 9.42906 28.6027 7.50087 31.9294C6.39905 33.8575 7.0559 36.3155 8.9841 37.4173L12.6498 39.515C14.3237 40.5109 16.485 39.9176 17.4808 38.2437L17.7139 37.8411C19.6209 34.5144 22.7569 34.5144 24.6851 37.8411L24.9182 38.2437C25.914 39.9176 28.0753 40.5109 29.7492 39.515L33.4149 37.4173C35.3431 36.3155 36 33.8364 34.8981 31.9294C32.9699 28.6027 34.5379 25.8905 38.3731 25.8905C40.5768 25.8905 42.399 24.0895 42.399 21.8646V18.1354C42.3778 15.9317 40.5768 14.1095 38.3519 14.1095ZM21.1889 26.8864C17.3961 26.8864 14.3025 23.7928 14.3025 20C14.3025 16.2072 17.3961 13.1136 21.1889 13.1136C24.9817 13.1136 28.0753 16.2072 28.0753 20C28.0753 23.7928 24.9817 26.8864 21.1889 26.8864Z"/>
</svg>
